<?xml version="1.0" encoding="UTF-8" standalone="no"?>
<svg
   xmlns:osb="http://www.openswatchbook.org/uri/2009/osb"
   xmlns:dc="http://purl.org/dc/elements/1.1/"
   xmlns:cc="http://creativecommons.org/ns#"
   xmlns:rdf="http://www.w3.org/1999/02/22-rdf-syntax-ns#"
   xmlns:svg="http://www.w3.org/2000/svg"
   xmlns="http://www.w3.org/2000/svg"
   xmlns:xlink="http://www.w3.org/1999/xlink"
   xmlns:sodipodi="http://sodipodi.sourceforge.net/DTD/sodipodi-0.dtd"
   xmlns:inkscape="http://www.inkscape.org/namespaces/inkscape"
   inkscape:export-ydpi="96"
   inkscape:export-xdpi="96"
   inkscape:export-filename="/Users/poitrac/Downloads/gene-finder.png"
   inkscape:version="1.0beta2 (2b71d25, 2019-12-03)"
   sodipodi:docname="gene-finder.svg"
   xml:space="preserve"
   style="enable-background:new 0 0 19.416 19.416;"
   viewBox="0 0 19.416 19.416"
   y="0px"
   x="0px"
   id="Capa_1"
   version="1.1"><metadata
   id="metadata187"><rdf:RDF><cc:Work
       rdf:about=""><dc:format>image/svg+xml</dc:format><dc:type
         rdf:resource="http://purl.org/dc/dcmitype/StillImage" /><dc:title></dc:title></cc:Work></rdf:RDF></metadata><defs
   id="defs185"><linearGradient
     osb:paint="solid"
     id="linearGradient2981"><stop
       id="stop2979"
       offset="0"
       style="stop-color:#000000;stop-opacity:1;" /></linearGradient><linearGradient
     gradientUnits="userSpaceOnUse"
     y2="9.7073984"
     x2="19.915886"
     y1="9.7073984"
     x1="-0.49919388"
     id="linearGradient2983"
     xlink:href="#linearGradient2981"
     inkscape:collect="always" /></defs><sodipodi:namedview
   inkscape:current-layer="Capa_1"
   inkscape:window-maximized="0"
   inkscape:window-y="23"
   inkscape:window-x="0"
   inkscape:cy="2.5582647"
   inkscape:cx="-24.700102"
   inkscape:zoom="5.5946126"
   inkscape:snap-global="true"
   showgrid="false"
   id="namedview183"
   inkscape:window-height="1035"
   inkscape:window-width="1920"
   inkscape:pageshadow="2"
   inkscape:pageopacity="0"
   guidetolerance="10"
   gridtolerance="10"
   objecttolerance="10"
   borderopacity="1"
   inkscape:document-rotation="0"
   bordercolor="#666666"
   pagecolor="#ffffff" />
<g
   style="mix-blend-mode:normal;fill:#000000;fill-opacity:1;stroke:#640000;stroke-width:0.55474;stroke-miterlimit:4;stroke-dasharray:none;stroke-opacity:1"
   transform="matrix(3.6052925,0,0,3.6052925,0.99802718,0.99976101)"
   id="g150">
	<path
   inkscape:connector-curvature="0"
   id="path148"
   d="M 19.01,5.052 C 18.73,4.989 18.45,5.164 18.387,5.445 18.383,5.457 18.298,5.808 18.025,6.284 l -4.9,-4.9 C 13.578,1.13 13.921,1.04 13.975,1.027 14.253,0.963 14.427,0.685 14.364,0.405 14.301,0.126 14.021,-0.051 13.742,0.013 13.689,0.025 8.569,1.287 9.508,8.733 2.752,8.205 0.184,12.363 0.074,12.55 c -0.125,0.208 -0.086,0.469 0.078,0.633 0.029,0.029 0.063,0.056 0.1,0.078 0.246,0.147 0.566,0.067 0.714,-0.177 0.028,-0.049 0.247,-0.395 0.691,-0.848 l 5.522,5.522 c -0.453,0.444 -0.798,0.661 -0.846,0.691 -0.247,0.146 -0.328,0.465 -0.18,0.713 0.022,0.038 0.049,0.072 0.079,0.102 0.165,0.164 0.425,0.203 0.634,0.078 0.187,-0.111 4.345,-2.678 3.817,-9.435 7.446,0.939 8.708,-4.182 8.721,-4.233 C 19.465,5.396 19.29,5.115 19.01,5.052 Z M 8.041,16.74 2.675,11.376 C 3.235,10.981 3.941,10.59 4.817,10.287 L 9.13,14.6 C 8.826,15.476 8.435,16.182 8.041,16.74 Z M 9.514,13.104 6.313,9.902 C 7.269,9.733 8.368,9.672 9.629,9.788 9.745,11.049 9.683,12.149 9.514,13.104 Z M 10.569,8.848 C 10.411,7.742 10.394,6.793 10.476,5.972 L 13.44,8.936 C 12.62,9.019 11.672,9.004 10.569,8.848 Z m 4.437,-0.227 -4.22,-4.22 c 0.312,-0.987 0.788,-1.695 1.277,-2.198 l 5.139,5.138 c -0.506,0.49 -1.213,0.967 -2.196,1.28 z"
   style="fill:#000000;fill-opacity:1;stroke:#640000;stroke-width:0.55474;stroke-miterlimit:4;stroke-dasharray:none;stroke-opacity:1" />
</g>
<g
   id="g152">
</g>
<g
   id="g154">
</g>
<g
   id="g156">
</g>
<g
   id="g158">
</g>
<g
   id="g160">
</g>
<g
   id="g162">
</g>
<g
   id="g164">
</g>
<g
   id="g166">
</g>
<g
   id="g168">
</g>
<g
   id="g170">
</g>
<g
   id="g172">
</g>
<g
   id="g174">
</g>
<g
   id="g176">
</g>
<g
   id="g178">
</g>
<g
   id="g180">
</g>
<path
   style="fill:#646464;fill-opacity:0.7;stroke:#323232;stroke-width:1.77427;stroke-miterlimit:4;stroke-dasharray:none;stroke-opacity:0.7"
   inkscape:connector-curvature="0"
   d="m 46.716781,50.076426 5.501325,5.501322 c -0.840361,1.602749 -0.926995,3.196833 -0.04332,4.080511 l 10.040997,10.040997 c 1.264874,1.264873 4.019864,0.571793 6.13376,-1.550765 2.122559,-2.12256 2.815638,-4.868887 1.550765,-6.133759 L 59.867979,51.97373 c -0.89234,-0.883675 -2.486425,-0.797041 -4.089174,0.03467 L 50.277482,46.51573 Z M 36.155971,17.103134 c -10.413528,0 -18.851781,8.438253 -18.851781,18.851781 0,10.413529 8.438253,18.851781 18.851781,18.851781 10.41353,0 18.851781,-8.438252 18.851781,-18.851781 0,-10.413528 -8.438251,-18.851781 -18.851781,-18.851781 z m 0,33.267849 c -7.96176,0 -14.416069,-6.45431 -14.416069,-14.416068 0,-7.96176 6.454309,-14.416069 14.416069,-14.416069 7.961761,0 14.416068,6.454309 14.416068,14.416069 0,7.961758 -6.454307,14.416068 -14.416068,14.416068 z"
   id="path189" /></svg>
